<?xml version="1.0" standalone="no"?>
<!DOCTYPE svg PUBLIC "-//W3C//DTD SVG 20010904//EN"
 "http://www.w3.org/TR/2001/REC-SVG-20010904/DTD/svg10.dtd">
<svg version="1.0" xmlns="http://www.w3.org/2000/svg"
 width="900.000000pt" height="847.000000pt" viewBox="0 0 900.000000 847.000000"
 preserveAspectRatio="xMidYMid meet">

<g transform="translate(0.000000,847.000000) scale(0.100000,-0.100000)"
fill="#000000" stroke="none">
<path d="M5212 7695 c3 -11 22 -74 42 -140 94 -303 168 -638 207 -930 31 -228
33 -636 5 -820 -53 -352 -165 -640 -361 -935 -127 -191 -236 -321 -520 -624
-397 -423 -557 -630 -688 -892 -173 -347 -248 -750 -218 -1179 27 -376 102
-739 247 -1193 81 -254 72 -241 95 -152 92 363 266 727 514 1076 216 303 423
535 935 1044 590 587 739 747 915 984 334 449 475 827 475 1271 0 88 -5 199
-11 245 -22 183 -80 410 -148 580 l-30 75 3 -85 c11 -356 -84 -715 -274 -1031
-184 -306 -441 -583 -1000 -1079 -313 -278 -641 -601 -781 -770 -260 -313
-426 -613 -525 -945 -37 -122 -42 -107 -18 52 73 497 332 981 829 1548 48 55
213 233 366 396 451 481 552 595 701 796 420 565 490 1055 229 1588 -161 326
-449 668 -866 1030 -142 123 -129 113 -123 90z"/>
<path d="M2930 4639 c-48 -29 -87 -66 -99 -98 l-11 -26 -128 0 c-192 -1 -309
-38 -411 -131 -52 -47 -131 -154 -131 -178 0 -7 26 -12 68 -14 332 -13 615
-198 829 -543 157 -251 294 -641 377 -1069 l23 -115 7 135 c37 737 292 1317
787 1795 63 61 150 139 194 174 44 35 87 70 95 78 12 11 -116 13 -775 13 -785
0 -790 0 -825 -21z"/>
</g>
</svg>
